/* XPM */
static char *c72c61d4250b4f37a4c813de2d1ca36d4Ccox43KEDgKVJwu[] = {
/* columns rows colors chars-per-pixel */
"30 30 4 1 ",
"  c None",
". c #071821",
"X c #86C06C",
"o c #E0F8CF",
/* pixels */
"        ....................  ",
"        ....................  ",
"      ..XXXX..XXXXXXXXXXXX....",
"      ..XXXX..XXXXXXXXXXXX....",
"    ..XXXX..XXXXXXXXXX..XXXX..",
"    ..XXXX..XXXXXXXXXX..XXXX..",
"  ..XXXX..XXXX..XXXX......XX..",
"  ..XXXX..XXXX..XXXX......XX..",
"  ......XXXXXX..XXXXXX..XXXX..",
"  ......XXXXXX..XXXXXX..XXXX..",
"      ..XXXXooXX..XXXXXXXXXX..",
"      ..XXXXooXX..XXXXXXXXXX..",
"      ..XXooXXooXX..XXXXXXXX..",
"      ..XXooXXooXX..XXXXXXXX..",
"      ..XXXXooXXooXX....XXXX..",
"      ..XXXXooXXooXX....XXXX..",
"      ..XXooXXooXXooXXXXXXXX..",
"      ..XXooXXooXXooXXXXXXXX..",
"........XXXXooXXooXXXXXXXX....",
"........XXXXooXXooXXXXXXXX....",
"..XXXXXX..XXXXXXXXXXXXXX..XX..",
"..XXXXXX..XXXXXXXXXXXXXX..XX..",
"  ..XXXXXX..............XXXX..",
"  ..XXXXXX..............XXXX..",
"    ..XXXX..          ..XX..  ",
"    ..XXXX..          ..XX..  ",
"      ..XX..            ..    ",
"      ..XX..            ..    ",
"        ....                  ",
"        ....                  "
};
