/* XPM */
static char * exit_closed_xpm[] = {
"32 32 4 1",
" 	c None",
".	c #071821",
"+	c #86C06C",
"@	c #E0F8CF",
"                                ",
"                                ",
"                                ",
"                                ",
"        ......    ......        ",
"        ......    ......        ",
"      ..++++++....++++++..      ",
"      ..++++++....++++++..      ",
"    ..++@@@@++++++@@@@++++..    ",
"    ..++@@@@++++++@@@@++++..    ",
"  ..++++++++++++++++++++++++..  ",
"  ..++++++++++++++++++++++++..  ",
"..++++......++++++++......++++..",
"..++++......++++++++......++++..",
"..++..++++++........++++++..++..",
"..++..++++++........++++++..++..",
"..++++++++++++++++++++++++++++..",
"..++++++++++++++++++++++++++++..",
"  ..++++@@++++++++++++++++++..  ",
"  ..++++@@++++++++++++++++++..  ",
"    ..++++@@@@@@++@@@@++++..    ",
"    ..++++@@@@@@++@@@@++++..    ",
"      ..++++++++++++++++..      ",
"      ..++++++++++++++++..      ",
"        ................        ",
"        ................        ",
"                                ",
"                                ",
"                                ",
"                                ",
"                                ",
"                                "};
