/* XPM */
static char *b364bff627e24ca29c9dba835313816cZBN0kzp3WAGo4oIj[] = {
/* columns rows colors chars-per-pixel */
"32 32 4 1 ",
"  c None",
". c #071821",
"X c #86C06C",
"o c #E0F8CF",
/* pixels */
"       ......      ......       ",
"       ......      ......       ",
"     ..XXXXXX......XXXXXX..     ",
"     ..XXXXXX......XXXXXX..     ",
"   ..XXooooXXXXXXXXXXXXXXXX..   ",
"   ..XXooooXXXXXXXXXXXXXXXX..   ",
" ..XXXXXXXXXXXXXXXXXXXXXXXXXX.. ",
" ..XXXXXXXXXXXXXXXXXXXXXXXXXX.. ",
" ..XXXXXX..............XXXXXX.. ",
" ..XXXXXX..............XXXXXX.. ",
" ..XXXX..oooooooooooooo..XXXX.. ",
" ..XXXX..oooooooooooooo..XXXX.. ",
" ..XX..oo..............oo..XX.. ",
" ..XX..oo..............oo..XX.. ",
" ..XX......................XX.. ",
" ..XX......................XX.. ",
" .............................. ",
" .............................. ",
" ..XX......................XX.. ",
" ..XX......................XX.. ",
" ..XXXX....XXXX..XXXX....XXXX.. ",
" ..XXXX....XXXX..XXXX....XXXX.. ",
" ..XXXXXX..XXXXXXXXXX..XXXXXX.. ",
" ..XXXXXX..XXXXXXXXXX..XXXXXX.. ",
" ..XXXXXX..ooXXXXXXXX..XX..XX.. ",
" ..XXXXXX..ooXXXXXXXX..XX..XX.. ",
"   ..XXXX..XXooooXXXX....XX..   ",
"   ..XXXX..XXooooXXXX....XX..   ",
"     ..XXXX..XXXXXX..XXXX..     ",
"     ..XXXX..XXXXXX..XXXX..     ",
"       ..................       ",
"       ..................       "
};
