/* XPM */
static char * rock2_xpm[] = {
"32 32 228 2",
"  	c None",
". 	c #7B4A34",
"+ 	c #724432",
"@ 	c #6A463A",
"# 	c #53321E",
"$ 	c #88573B",
"% 	c #93533A",
"& 	c #9B5839",
"* 	c #AC6946",
"= 	c #A26C4A",
"- 	c #84603E",
"; 	c #6A4334",
"> 	c #482919",
", 	c #875A45",
"' 	c #9B5D43",
") 	c #9B6144",
"! 	c #B56947",
"~ 	c #B96947",
"{ 	c #C3734E",
"] 	c #BA6D4C",
"^ 	c #D49372",
"/ 	c #CA936D",
"( 	c #79472E",
"_ 	c #A5725A",
": 	c #BC886E",
"< 	c #E2B895",
"[ 	c #DB8666",
"} 	c #B4654B",
"| 	c #B26245",
"1 	c #BD7B54",
"2 	c #BD7A5A",
"3 	c #C57D60",
"4 	c #C38D6B",
"5 	c #B26C52",
"6 	c #945C44",
"7 	c #7D4B3B",
"8 	c #693524",
"9 	c #3B2417",
"0 	c #D8A687",
"a 	c #EACAAB",
"b 	c #A46245",
"c 	c #C38662",
"d 	c #C68A72",
"e 	c #D38C6B",
"f 	c #D48D64",
"g 	c #C47C59",
"h 	c #B88366",
"i 	c #B57955",
"j 	c #B3765B",
"k 	c #AE7B6C",
"l 	c #A36853",
"m 	c #834C3A",
"n 	c #5A331C",
"o 	c #C3A184",
"p 	c #AB6D53",
"q 	c #DD916B",
"r 	c #E7A87C",
"s 	c #E5A585",
"t 	c #D98B59",
"u 	c #BD6C52",
"v 	c #BB7454",
"w 	c #AC6B4C",
"x 	c #AB705C",
"y 	c #955B4A",
"z 	c #6E3D34",
"A 	c #442314",
"B 	c #9A6B4B",
"C 	c #BB7D62",
"D 	c #D38362",
"E 	c #FBB58A",
"F 	c #E7AE92",
"G 	c #D3AD92",
"H 	c #C69579",
"I 	c #C37454",
"J 	c #A35C44",
"K 	c #55291C",
"L 	c #975A3E",
"M 	c #CA7C5C",
"N 	c #A66C5B",
"O 	c #754435",
"P 	c #3A1A11",
"Q 	c #9A6852",
"R 	c #C36D4E",
"S 	c #9E603F",
"T 	c #AB5D43",
"U 	c #77382A",
"V 	c #5C2B19",
"W 	c #522115",
"X 	c #3B1B0C",
"Y 	c #AB6545",
"Z 	c #B8775D",
"` 	c #B25F47",
" .	c #CB8562",
"..	c #AE644A",
"+.	c #B47454",
"@.	c #61301E",
"#.	c #311A0C",
"$.	c #C97759",
"%.	c #D2845D",
"&.	c #723A2C",
"*.	c #592519",
"=.	c #3B2315",
"-.	c #371914",
";.	c #9A5744",
">.	c #C37A55",
",.	c #CC825D",
"'.	c #8C4D39",
").	c #52271B",
"!.	c #2D1A0D",
"~.	c #B56C4D",
"{.	c #CC846C",
"].	c #9B634B",
"^.	c #6A3D29",
"/.	c #2D140C",
"(.	c #B5744D",
"_.	c #A35C49",
":.	c #42231A",
"<.	c #231412",
"[.	c #864B33",
"}.	c #DB9875",
"|.	c #CC8B6D",
"1.	c #6C5148",
"2.	c #090303",
"3.	c #873F36",
"4.	c #EEB17F",
"5.	c #421A0E",
"6.	c #4A2822",
"7.	c #BE6457",
"8.	c #D39166",
"9.	c #D58B74",
"0.	c #8B5245",
"a.	c #9B5951",
"b.	c #EC9C6D",
"c.	c #F5B895",
"d.	c #390E09",
"e.	c #63332A",
"f.	c #22181F",
"g.	c #140A06",
"h.	c #431D14",
"i.	c #3C140D",
"j.	c #E79676",
"k.	c #E69D7B",
"l.	c #DA8D77",
"m.	c #DF8A6B",
"n.	c #C57563",
"o.	c #F4A778",
"p.	c #E78E63",
"q.	c #C3835C",
"r.	c #542922",
"s.	c #59322A",
"t.	c #633426",
"u.	c #260C07",
"v.	c #B58775",
"w.	c #E7A36D",
"x.	c #F2A586",
"y.	c #F2AE8C",
"z.	c #EBA274",
"A.	c #E89773",
"B.	c #E6966A",
"C.	c #EA966D",
"D.	c #ECAA81",
"E.	c #5D2D22",
"F.	c #672F23",
"G.	c #7D3B36",
"H.	c #955345",
"I.	c #B86049",
"J.	c #D77C5A",
"K.	c #E3876A",
"L.	c #CF885A",
"M.	c #EBA47C",
"N.	c #7C443A",
"O.	c #B65A4A",
"P.	c #C56C55",
"Q.	c #6C362A",
"R.	c #A4634B",
"S.	c #9A564A",
"T.	c #D87C64",
"U.	c #6B271E",
"V.	c #D56C59",
"W.	c #E27758",
"X.	c #C6836C",
"Y.	c #733B33",
"Z.	c #481B15",
"`.	c #341413",
" +	c #4D231C",
".+	c #954C39",
"++	c #B77866",
"@+	c #B97C76",
"#+	c #8E4B44",
"$+	c #2B1305",
"%+	c #934246",
"&+	c #B56963",
"*+	c #B26454",
"=+	c #551B15",
"-+	c #E0D8C6",
";+	c #CC6567",
">+	c #FBFAEA",
",+	c #FDFDF0",
"'+	c #762C2E",
")+	c #1C0A06",
"!+	c #481A0E",
"~+	c #A96A56",
"{+	c #D4826C",
"]+	c #AC5554",
"^+	c #BB5C64",
"/+	c #D8C1AD",
"(+	c #E8EAD7",
"_+	c #D7CFCF",
":+	c #8D6B65",
"<+	c #3B2723",
"[+	c #DB9485",
"}+	c #C67172",
"|+	c #A14E53",
"1+	c #AF5156",
"2+	c #5A2A27",
"3+	c #3C1E20",
"4+	c #31140B",
"5+	c #82442E",
"6+	c #714B41",
"7+	c #3D1F19",
"8+	c #CC7B63",
"9+	c #1D0D0A",
"0+	c #95614E",
"a+	c #6F4740",
"b+	c #754A3D",
"c+	c #AA7D61",
"d+	c #7D4E40",
"e+	c #7A503D",
"                                . + + @ #                       ",
"                          $ % & & & * * = - ; >                 ",
"                    , & % ' ) ! ~ { ! ] ^ / . ( #               ",
"                _ : < [ } | | | 1 2 3 2 ! 4 5 6 7 8 9           ",
"              0 a ' b c d ^ ^ e f g / h 1 i j k l m n 9         ",
"            o < d | p g e q q r s t u * v 1 w x h y z n A       ",
"            B B b C D E F G H F ^ D v } ] I } J ) . K K A       ",
"          $ J = L M N m m O P ; 9 Q I I R S J T % U V W A X     ",
"          , J * Y Z ( `  .M 5 ..u 6 v { +.R ] 5 C m @.8 A #.    ",
"        $ ) = J J | p g { { { { { t g $.$.%.f 1 b &.8 A *.=.-.  ",
"        ;.' ` J { { { { { { { { { { { e >.,.I w L '.&.).P !.!.  ",
"      , p J ~.~.{ { { { { { { { { { { {.e w u c 5 ].' ^.P P /.  ",
"      B Y ].(.+.{ { { { { { 5 { { { { D g V _.:.<.<.-.P &.9 =.  ",
"  ] w [.i w w Y }.|.+./.1.2.<.W 3.w f 4.~.5.K '.+.5 y K /.6.!.  ",
"= 7.6 '.= 2 b M e  .8.r 9.].y 0.a.[ b.c.f P d.e.f.2.g.h.i.5.!.  ",
"j.t 4 p B Y Y D k.j.l.m.c.n.u 9.q o.p.o.q.r.*.g x s.t.2.u.i.A   ",
"9.b.v.w.b S ~ ,.x.y.F z.A.B.C.D.4.C.B.o.g E.F.G.J H.% . K K > O ",
"m.I.f s ].w (.J.K.D.c.q L.K.C.M.t p.o.4.c ^.8 z u } ;.N.K ; t.  ",
"x z.$.I ) J * ~.[ k.s y.M O.P.A.E b.b.4./ Q.Q Q.R.M I.S.7 ; #   ",
"  z.q w ].) | I * p.T.U.H.A.s V.W.J.K.V._.&.J z 8 $.u ' . 8 X   ",
"  %.w...) Y b | M U s ` c {.l.X.n.$.l.Y.Z.`.u. +W i._..+8 h.P   ",
"      ].' ! 1 R.v M m ++@+: v.3 k @+#+Y.r.$+`.:.Z.h.d.U  +i.    ",
"      6 ) ~.{ .+>.~.y V N.G.%+v.&+*+7.H.H.G.s.r.> P *./.=+i.    ",
"        ;.Y { I Y I.l ++0.-+;+>+,+v.'+6.6.`.)+)+/.`.A !+5.h.    ",
"        '.b I L.w Y ~+{+D X.]+^+^+>+/+(+_+:+<+g.5.s.y Z. +#.    ",
"        Q.b ..1 q.i j {.l.j.[+[+}+|+|+1+%+2+3+h.s.N.d.Z.4+      ",
"          5+'.* j B : v.}+m.K.T.*+H.6+&.z 5.6.7+P @ /.Z.$+      ",
"            + .+].p ++H {.8+Z T.O.|+a.#+z e.2+9 e.9+P /.        ",
"              ; H.0+_ 4 o {.9.s {+h g Z Q y s.a+X !.4+P         ",
"                6.m , x H H H 0 |.j j x + b+; 9 /.9+            ",
"                    b+, 0+c+C ++6 0+N N z -.#.<.g.              ",
"                            z ; d+b+e+2+/.u.                    "};
