/* XPM */
static char *_04c5384ad2d481adf8a77017fa4faa6UQ9zPtdiOfEbu7yV[] = {
/* columns rows colors chars-per-pixel */
"32 32 234 2 ",
"   c None",
".  c #090303",
"X  c #140A06",
"o  c #1C0A06",
"O  c #1D0D0A",
"+  c #260C07",
"@  c #2B1305",
"#  c #2D140C",
"$  c #2D1A0D",
"%  c #31140B",
"&  c #3C140D",
"*  c #311A0C",
"=  c #3B1B0C",
"-  c #231412",
";  c #2B1713",
":  c #22181F",
">  c #341413",
",  c #3A1A11",
"<  c #3D1F19",
"1  c #371914",
"2  c #390E09",
"3  c #3B2315",
"4  c #3B2417",
"5  c #3C1E20",
"6  c #3B2723",
"7  c #421A0E",
"8  c #481A0E",
"9  c #431D14",
"0  c #481B15",
"q  c #551B15",
"w  c #442314",
"e  c #42231A",
"r  c #4D231C",
"t  c #482919",
"y  c #522115",
"u  c #592519",
"i  c #55291C",
"p  c #5C2B19",
"a  c #52271B",
"s  c #53321E",
"d  c #5A331C",
"f  c #61301E",
"g  c #6B271E",
"h  c #4A2822",
"j  c #542922",
"k  c #5D2D22",
"l  c #5A2A27",
"z  c #59322A",
"x  c #672F23",
"c  c #633426",
"v  c #693524",
"b  c #63332A",
"n  c #6C362A",
"m  c #6A3D29",
"M  c #723A2C",
"N  c #77382A",
"B  c #6E3D34",
"V  c #733B33",
"C  c #7D3B36",
"Z  c #762C2E",
"A  c #79472E",
"S  c #6A4334",
"D  c #6A463A",
"F  c #724432",
"G  c #7B4A34",
"H  c #7C443A",
"J  c #754A3D",
"K  c #7D4B3B",
"L  c #754435",
"P  c #7A503D",
"I  c #6F4740",
"U  c #7D4E40",
"Y  c #714B41",
"T  c #6C5148",
"R  c #873F36",
"E  c #82442E",
"W  c #834C3A",
"Q  c #8C4D39",
"!  c #864B33",
"~  c #954C39",
"^  c #88533E",
"/  c #88573B",
"(  c #93533A",
")  c #975A3E",
"_  c #9B5839",
"`  c #A1553B",
"'  c #84603E",
"]  c #9E603F",
"[  c #8E4B44",
"{  c #8B5245",
"}  c #875A45",
"|  c #955345",
" . c #9A5744",
".. c #945C44",
"X. c #9B5D43",
"o. c #955B4A",
"O. c #9A564A",
"+. c #9B5951",
"@. c #934246",
"#. c #A35C44",
"$. c #AB5D43",
"%. c #A35C49",
"&. c #B25F47",
"*. c #B65A4A",
"=. c #A14E53",
"-. c #AC5554",
";. c #AF5156",
":. c #9B6144",
">. c #95614E",
",. c #9B634B",
"<. c #9A6B4B",
"1. c #9A6852",
"2. c #A46245",
"3. c #AB6545",
"4. c #AC6946",
"5. c #A4634B",
"6. c #AE644A",
"7. c #A26C4A",
"8. c #AC6B4C",
"9. c #B26245",
"0. c #B56947",
"q. c #B96947",
"w. c #B4654B",
"e. c #B56C4D",
"r. c #BA6D4C",
"t. c #B86049",
"y. c #B5744D",
"u. c #A36853",
"i. c #AB6D53",
"p. c #A66C5B",
"a. c #A96A56",
"s. c #B26454",
"d. c #B26C52",
"f. c #BD6C52",
"g. c #BE6457",
"h. c #A5725A",
"j. c #AB705C",
"k. c #B47454",
"l. c #BB7454",
"z. c #B57955",
"x. c #BD7B54",
"c. c #B3765B",
"v. c #BD7A5A",
"b. c #B8775D",
"n. c #BB5C64",
"m. c #8D6B65",
"M. c #AE7B6C",
"N. c #AA7D61",
"B. c #BB7D62",
"V. c #B77866",
"C. c #B97C76",
"Z. c #B56963",
"A. c #C36D4E",
"S. c #C3734E",
"D. c #C56C55",
"F. c #C37454",
"G. c #C37A55",
"H. c #C47C59",
"J. c #CA7C5C",
"K. c #C97759",
"L. c #D77C5A",
"P. c #D56C59",
"I. c #E27758",
"U. c #C57D60",
"Y. c #CC7B63",
"T. c #C57563",
"R. c #D87C64",
"E. c #C67172",
"W. c #CC6567",
"Q. c #BC886E",
"!. c #B88366",
"~. c #B58775",
"^. c #C3835C",
"/. c #CC825D",
"(. c #CF885A",
"). c #D2845D",
"_. c #D98B59",
"`. c #CB8562",
"'. c #C6836C",
"]. c #CC846C",
"[. c #C38D6B",
"{. c #CC8B6D",
"}. c #C38662",
"|. c #D38362",
" X c #D48D64",
".X c #DC8963",
"XX c #D4826C",
"oX c #D38C6B",
"OX c #DF8A6B",
"+X c #DB8666",
"@X c #CA936D",
"#X c #DD916B",
"$X c #D39166",
"%X c #C68A72",
"&X c #D58B74",
"*X c #DA8D77",
"=X c #C69579",
"-X c #D49372",
";X c #D9977B",
":X c #DB9875",
">X c #E78E63",
",X c #E3876A",
"<X c #EA966D",
"1X c #EC9C6D",
"2X c #E6966A",
"3X c #E89773",
"4X c #E69D7B",
"5X c #E79676",
"6X c #EBA274",
"7X c #EBA47C",
"8X c #E7A87C",
"9X c #F4A778",
"0X c #EEB17F",
"qX c #E7A36D",
"wX c #DB9485",
"eX c #D8A687",
"rX c #D3AD92",
"tX c #C3A184",
"yX c #ECAA81",
"uX c #E5A585",
"iX c #F2AE8C",
"pX c #F2A586",
"aX c #FBB58A",
"sX c #E7AE92",
"dX c #E2B895",
"fX c #F5B895",
"gX c #D8C1AD",
"hX c #F2DFBD",
"jX c #EACAAB",
"kX c #D7CFCF",
"lX c #E0D8C6",
"zX c #E8EAD7",
"xX c #FBFAEA",
"cX c #FDFDF0",
/* pixels */
"                                G F F D s                       ",
"                          / ( _ _ _ 4.4.7.' S t                 ",
"                    } _ ( X.:.0.q.S.0.r.-X@XG A s               ",
"                h.Q.dX+Xw.9.9.9.x.v.U.v.0.[.d...K v 4           ",
"              eXjXhXjX] 6.q.e.G.G.@X@X!.x.z.c.M.u.W d 4         ",
"            tXdX%XB.5.9.e.F.F.{.S.z.f.4.l.x.8.j.!.o.B d w       ",
"            <.<.2.) #.9.l.-XJ.oXoX`.l.w.r.F.w.#.:.G i i w       ",
"          / #.7.) ` $.i.%X;X;X-XH.x.F.F.A.] #.$.( N p y w =     ",
"          } #.4.3.X.2.}.%X-X-XoX XH.l.S.k.A.r.d.B.W f v w *     ",
"        / :.7.#.#.9.i.H.oX#X#X8XuX_.H.K.K.). Xx.2.M v w u 3 1   ",
"         .X.&.#.#.B.|.aXsXrX=XsX-X|.*XoXG./.F.8.) Q M a , $ $   ",
"      } i.#.e.e...J.p.W W L , S 4 1.l.].oX8.f.}.d.,.X.m , , #   ",
"      <.3.,.y.k.l.b.A &.`.J.d.6.f...r.|.H.p %.e - - 1 , M 4 3   ",
"  r.8.! z.8.8.3.:X{.k.# T . - y R 8. X0Xe.7 i Q k.d.o.i # h $   ",
"7.g...Q 7.v.2.J.oX`.$X8X&X,.o.{ +.+X1XfX X, 2 b : . X 9 & 7 $   ",
"5X_.[.i.<.3.3.|.4X5X*XOXfXT.f.&X#X9X>X9X^.j u H.j.z c . + & w   ",
"&X1X~.qX2.] q./.pXiXsX6X3X2X<XyX0X<X2X9XH.k x C #.| ( G i i t L ",
"OXt. XuX,.8.y.L.,XyXfX#X(.,X<X7X_.>X9X0X}.m v B f.w. .H i S c   ",
"j.6XK.F.:.#.4.e.+X4XuXiXJ.*.D.3XaX1X1X0X@Xn 1.n 5.J.t.O.K S s   ",
"  6X#X8.,.:.9.F.4.>XR.g | 3XuXP.I.L.,XP.%.M #.B v K.f.X.G v =   ",
"  ).qX6.:.3.2.9.J.N uX&.}.].*X'.T.K.*XV 0 > + r y & %.~ v 9 ,   ",
"      ,.X.0.x.5.l.J.W V.C.Q.~.U.M.C.[ V j @ > e 0 9 2 N r &     ",
"      ..:.e.S.~ G.e.o.p H C @.~.Z.s.g.| | C z j t , u # q &     ",
"         .3.S.F.3.t.u.V.{ lXW.xXcX~.Z h h > o o # > w 8 7 9     ",
"        Q 2.F.(.8.3.a.XX|.'.-.n.n.xXgXzXkXm.6 X 7 z o.0 r *     ",
"        n 2.6.x.^.z.c.].*X5XwXwXE.=.=.;.@.l 5 9 z H 2 0 %       ",
"          E Q 4.c.<.Q.~.E.OX,XR.s.| Y M B 7 h < , D # 0 @       ",
"            F ~ ,.i.V.=X].Y.b.R.*.=.+.[ B b l 4 b O , #         ",
"              S | >.h.[.tX].&XuXXX!.H.b.1.o.z I = $ % ,         ",
"                h W } j.=X=X=XeX{.c.c.j.F J S 4 # O             ",
"                    J } >.N.B.V...>.p.p.B 1 * - X               ",
"                            B S U J P l # +                     "
};
