/* XPM */
static char *e50eb5c2bb664126f182dd556bc484b4oTOnCPRBo71nPIjT[] = {
/* columns rows colors chars-per-pixel */
"30 30 3 1 ",
"  c None",
". c #86C06C",
"X c #E0F8CF",
/* pixels */
"XX  XX  XX  XX  XX  XX  XX  XX",
"XX  XX  XX  XX  XX  XX  XX  XX",
"  XXXXXXXXXXXXXXXXXXXXXXXXXX  ",
"  XXXXXXXXXXXXXXXXXXXXXXXXXX  ",
"XXXX......................XXXX",
"XXXX......................XXXX",
"  XX......................XX  ",
"  XX......................XX  ",
"XXXX......................XXXX",
"XXXX......................XXXX",
"  XX......................XX  ",
"  XX......................XX  ",
"XXXX......................XXXX",
"XXXX......................XXXX",
"  XX......................XX  ",
"  XX......................XX  ",
"XXXX......................XXXX",
"XXXX......................XXXX",
"  XX......................XX  ",
"  XX......................XX  ",
"XXXX......................XXXX",
"XXXX......................XXXX",
"  XX......................XX  ",
"  XX......................XX  ",
"XXXX......................XXXX",
"XXXX......................XXXX",
"  XXXXXXXXXXXXXXXXXXXXXXXXXX  ",
"  XXXXXXXXXXXXXXXXXXXXXXXXXX  ",
"XX  XX  XX  XX  XX  XX  XX  XX",
"XX  XX  XX  XX  XX  XX  XX  XX"
};
